<svg width="98" height="80" viewBox="0 0 98 80" fill="none" xmlns="http://www.w3.org/2000/svg">
<path d="M17.4841 0.419868L14.601 3.05176e-05C14.5126 3.05176e-05 14.4242 3.33391e-05 14.4242 0.0881992L13.2036 1.65419C13.1339 1.75635 13.1026 1.87974 13.1152 2.00266C13.1152 2.09082 13.0268 2.26715 12.9426 2.17899L11.9788 1.91869C11.8062 1.91869 11.6294 1.91869 11.5579 2.09082L7.62676 7.12887C7.53838 7.21703 7.44998 7.21704 7.27742 7.21704L5.79167 6.5201C5.72862 6.4806 5.65567 6.45964 5.58122 6.45964C5.50677 6.45964 5.43382 6.4806 5.37077 6.5201L4.54583 7.0491C4.48314 7.08958 4.41006 7.11112 4.33538 7.11112C4.26071 7.11112 4.18762 7.08958 4.12494 7.0491L3.7756 6.87697C3.71873 6.85133 3.65713 6.83776 3.59472 6.83713C3.53232 6.83649 3.47046 6.84881 3.41307 6.87329C3.35569 6.89776 3.30403 6.93386 3.26138 6.97931C3.21873 7.02475 3.18601 7.07854 3.1653 7.13727L2.90014 8.35479C2.86866 8.48408 2.87714 8.61985 2.92447 8.74424C2.97179 8.86863 3.05575 8.97582 3.1653 9.05172L3.86398 9.47156L5.69487 10.6051L6.57032 11.1257C6.69322 11.1977 6.83604 11.2284 6.97774 11.2133C7.11944 11.1982 7.25253 11.138 7.35739 11.0418L8.83894 9.73186C8.96651 9.6594 9.11413 9.62995 9.25983 9.64789L9.68072 9.9082C9.85329 9.99636 10.0301 9.99636 10.1016 9.82003L10.8845 9.1231C10.9383 9.06902 11.0069 9.03186 11.0817 9.01619C11.1565 9.00052 11.2342 9.00704 11.3054 9.03493L12.4418 9.55973C12.5294 9.58839 12.6227 9.59533 12.7136 9.57997C12.8046 9.56461 12.8904 9.5274 12.9637 9.47156L13.4898 8.77463L17.4209 3.73658C17.5935 3.47208 17.5051 3.12362 17.1558 3.12362L16.3308 2.93889C16.154 2.93889 16.0699 2.67859 16.154 2.51905L17.5514 0.864895C17.745 0.688563 17.6566 0.419868 17.4841 0.419868Z" fill="white"/>
<path d="M4.38166 10.6219C4.29327 10.5338 4.20911 10.6219 4.20911 10.7101L4.63 11.8395V12.104L4.28065 13.5818C4.27466 13.6297 4.2795 13.6783 4.29479 13.724C4.31009 13.7698 4.33545 13.8116 4.36903 13.8463L5.41707 14.6272C5.46541 14.6694 5.52747 14.6927 5.59173 14.6927C5.65598 14.6927 5.71806 14.6694 5.7664 14.6272L6.90282 13.67C6.9368 13.6365 6.97795 13.6112 7.02314 13.596C7.06834 13.5807 7.11642 13.5759 7.16377 13.5818L8.38857 13.4097C8.47274 13.4097 8.47274 13.3215 8.38857 13.2333L4.38166 10.6219Z" fill="white"/>
<path d="M4.03227 14.3667C4.01749 14.3459 3.99792 14.329 3.97522 14.3173C3.95252 14.3056 3.92734 14.2995 3.90179 14.2995C3.87624 14.2995 3.85106 14.3056 3.82836 14.3173C3.80566 14.329 3.78609 14.3459 3.77131 14.3667L2.89585 14.7866C2.88443 14.7865 2.87313 14.7888 2.86264 14.7933C2.85214 14.7978 2.84268 14.8044 2.8348 14.8126C2.82693 14.8209 2.82081 14.8306 2.81683 14.8413C2.81286 14.852 2.81111 14.8634 2.81168 14.8747L0.888199 19.5769H0.976583L1.39748 19.4048V19.4887L0.00012207 21.7559C0.00012207 21.844 0.000114362 21.844 0.0842929 21.844L4.97506 16.8774C5.06345 16.8774 5.06346 16.7892 5.06346 16.701L5.15184 15.3953C5.15184 15.3072 5.15184 15.2232 5.06346 15.2232L4.03227 14.3667Z" fill="white"/>
<path d="M47.6585 80.0001L45.7224 76.3853L49.0896 74.0552L49.7377 74.9578L48.6729 75.6757C48.491 75.8062 48.3012 75.9254 48.1047 76.0326C47.927 76.1334 47.7412 76.2191 47.5491 76.2887L51.1688 77.162L50.9204 78.1864L47.2923 77.3089C47.3876 77.4065 47.4762 77.5102 47.5575 77.6196C47.6375 77.7246 47.7132 77.8379 47.789 77.9597L48.0205 78.3795L48.635 79.5047L47.6585 80.0001Z" fill="#FFCD1E"/>
<path d="M31.7994 66.1875C32.376 65.5283 33.2936 65.4611 34.1143 66.1875L35.7979 67.6611L32.4308 71.4942L31.0923 70.2893C30.2169 69.5252 29.897 68.7233 30.5115 68.0179C30.6439 67.8522 30.8221 67.7289 31.0241 67.6632C31.2261 67.5976 31.443 67.5924 31.6479 67.6485C31.4968 67.4261 31.4292 67.1577 31.4569 66.8904C31.4846 66.6232 31.6059 66.3743 31.7994 66.1875ZM33.0032 69.3866L32.3213 68.7946C31.9004 68.421 31.5385 68.316 31.3196 68.5679C31.1007 68.8198 31.2522 69.1515 31.6858 69.5252L32.3634 70.1171L33.0032 69.3866ZM32.456 66.9012C32.1572 67.2454 32.3171 67.6653 32.7885 68.0767L33.563 68.7485L34.4426 67.7451L33.6682 67.0733C33.1968 66.6619 32.7591 66.5527 32.456 66.9012Z" fill="white"/>
<path d="M24.2148 62.686L26.5382 60.9227C27.6072 60.1082 28.832 60.125 29.6191 61.1536C30.4062 62.1822 30.0947 63.3662 29.0257 64.1765L26.7023 65.9398L26.1173 65.1757L28.5332 63.3368C28.6636 63.2576 28.7759 63.152 28.8628 63.0268C28.9497 62.9015 29.0093 62.7595 29.0376 62.6099C29.066 62.4602 29.0625 62.3063 29.0274 62.1581C28.9924 62.0098 28.9264 61.8706 28.834 61.7494C28.7415 61.6282 28.6246 61.5277 28.4907 61.4545C28.3568 61.3813 28.209 61.3369 28.0569 61.3243C27.9047 61.3116 27.7516 61.331 27.6074 61.3812C27.4633 61.4314 27.3313 61.5112 27.22 61.6155L24.7999 63.4502L24.2148 62.686Z" fill="white"/>
<path d="M26.6099 56.7536L22.0979 59.1257L21.6476 58.286L26.168 55.9013L26.6099 56.7536Z" fill="white"/>
<path d="M22.8342 50.2587L23.7518 49.9438L24.7367 52.7861L19.9091 54.4655L19.5934 53.5545L23.4993 52.211L22.8342 50.2587Z" fill="white"/>
<path d="M19.8545 42.9537C21.2519 42.7606 22.5103 43.5625 22.7418 45.2376L22.9733 46.917L17.9226 47.6097L17.6953 45.9303C17.4596 44.209 18.4614 43.1426 19.8545 42.9537ZM19.985 43.9067C19.7803 43.9251 19.5815 43.985 19.4009 44.0827C19.2202 44.1805 19.0615 44.3142 18.9346 44.4754C18.8077 44.6366 18.7151 44.8221 18.6627 45.0203C18.6103 45.2185 18.599 45.4253 18.6297 45.6281L18.7476 46.5097L21.879 46.0899L21.7569 45.2124C21.732 45.009 21.6659 44.8128 21.5626 44.6357C21.4593 44.4586 21.321 44.3043 21.156 44.1822C20.9911 44.0601 20.8029 43.9727 20.6031 43.9253C20.4032 43.878 20.1958 43.8716 19.9934 43.9067H19.985Z" fill="white"/>
<path d="M18.3981 30.4046L19.3536 30.5935L19.0926 31.895L23.1458 32.7011L22.9564 33.6457L18.9032 32.8397L18.6423 34.137L17.691 33.948L18.3981 30.4046Z" fill="white"/>
<path d="M21.1844 22.684L25.8899 24.653L25.5153 25.5431L23.6087 24.7454L22.7669 26.7438L24.6736 27.5415L24.299 28.4274L19.5934 26.4583L19.968 25.5683L21.8704 26.366L22.7122 24.3675L20.8098 23.5698L21.1844 22.684Z" fill="white"/>
<path d="M24.661 18.6492L25.5659 19.2622L26.5803 17.7675L27.3842 18.3091L26.3698 19.8037L27.2748 20.4167L28.4953 18.624L29.2992 19.1656L27.5357 21.756L23.3268 18.9011L25.0861 16.3107L25.89 16.8565L24.661 18.6492Z" fill="white"/>
<path d="M34.8342 13.3046L31.7112 9.27841L34.1944 7.36395L34.7879 8.12806L33.0707 9.45474L33.7441 10.3196L35.1751 9.21123L35.7728 9.97954L34.3333 11.0921L35.596 12.7211L34.8342 13.3046Z" fill="white"/>
<path d="M41.2317 3.36703L42.5406 5.96583C43.1425 7.16237 42.9026 8.3589 41.7451 8.94248C40.5877 9.52605 39.4765 9.00126 38.8747 7.80052L37.5657 5.21432L38.4285 4.79448L39.7922 7.49824C39.8574 7.62587 39.9472 7.73944 40.0564 7.83246C40.1656 7.92549 40.2922 7.99614 40.4288 8.04039C40.5654 8.08464 40.7094 8.10161 40.8525 8.09035C40.9957 8.07909 41.1353 8.03981 41.2632 7.97475C41.3912 7.90969 41.505 7.82013 41.5983 7.71118C41.6915 7.60223 41.7624 7.47603 41.8067 7.33978C41.8511 7.20352 41.8681 7.05988 41.8568 6.91707C41.8455 6.77425 41.8062 6.63506 41.7409 6.50742L40.3772 3.79947L41.2317 3.36703Z" fill="white"/>
<path d="M48.4752 0.990875L48.732 1.92291L47.4693 2.27558L48.5678 6.25144L47.6335 6.50334L46.5391 2.53168L45.2765 2.88434L45.0155 1.94811L48.4752 0.990875Z" fill="white"/>
<path d="M56.5228 0L56.7333 2.90108C56.8301 4.23616 56.144 5.24797 54.8519 5.34033C53.5598 5.4327 52.7474 4.53005 52.6422 3.19076L52.4318 0.293885L53.3956 0.222513L53.6103 3.24534C53.603 3.39945 53.6285 3.55335 53.6852 3.69689C53.7419 3.84044 53.8284 3.97037 53.9391 4.07811C54.0498 4.18586 54.1821 4.26897 54.3274 4.32198C54.4726 4.37498 54.6275 4.39667 54.7818 4.38562C54.9361 4.37456 55.0862 4.33101 55.2224 4.25784C55.3585 4.18467 55.4776 4.08353 55.5717 3.96111C55.6659 3.83869 55.7329 3.69775 55.7684 3.5476C55.804 3.39745 55.8072 3.24149 55.7779 3.09L55.559 0.0671739L56.5228 0Z" fill="white"/>
<path d="M62.7856 5.52967L61.8722 3.69918L61.2956 3.62781L61.081 5.30716L60.1213 5.18121L60.7737 0.143158L62.5709 0.37407C63.8799 0.542005 64.3934 1.3271 64.2545 2.30532C64.214 2.66175 64.0602 2.99589 63.8156 3.2588C63.5709 3.52171 63.2483 3.69958 62.895 3.76636L63.9388 5.68501L62.7856 5.52967ZM61.4219 2.66638L62.3815 2.78813C62.483 2.81015 62.588 2.81168 62.6901 2.79263C62.7922 2.77358 62.8895 2.73433 62.9761 2.67721C63.0628 2.62009 63.1372 2.54625 63.1948 2.46002C63.2524 2.3738 63.2922 2.27695 63.3117 2.17517C63.3248 2.06992 63.3154 1.96308 63.2839 1.86176C63.2525 1.76044 63.1998 1.66696 63.1293 1.58754C63.0588 1.50811 62.9722 1.44456 62.8752 1.4011C62.7782 1.35764 62.6731 1.33528 62.5667 1.3355L61.6071 1.21374L61.4219 2.66638Z" fill="white"/>
<path d="M69.1537 2.7961L68.8128 3.8331L70.53 4.39988L70.227 5.31932L68.5098 4.75254L68.1688 5.78954L70.2312 6.46967L69.9408 7.38912L66.9651 6.4067L68.5603 1.57437L71.5402 2.55259L71.2371 3.47623L69.1537 2.7961Z" fill="white"/>
<path d="M82.6938 7.64127L82.9716 11.7305L78.9268 12.4694L78.7079 11.3736L79.9706 11.1553C80.2021 11.1133 80.4252 11.0797 80.6356 11.0629C80.8387 11.0461 81.0428 11.0461 81.2459 11.0629L78.2997 8.77902L78.9479 7.93935L81.8941 10.2233C81.8466 10.0961 81.8086 9.9656 81.7805 9.83282C81.7483 9.6946 81.7258 9.55432 81.7131 9.41298C81.7131 9.27443 81.6794 9.1149 81.6668 8.94696L81.57 7.68745L82.6938 7.64127Z" fill="#FFCD1E"/>
<path d="M89.5544 26.1558L90.615 24.4093L90.3709 23.8845L88.8304 24.5982L88.4095 23.725L93.0394 21.5838L93.8054 23.2212C94.361 24.4135 93.9695 25.2658 93.0772 25.6814C92.7531 25.8375 92.3872 25.8859 92.0335 25.8194C91.6797 25.7529 91.3567 25.5751 91.1117 25.312L90.0426 27.218L89.5544 26.1558ZM91.2379 23.4773L91.6588 24.3505C91.6943 24.4482 91.7491 24.5378 91.8199 24.614C91.8907 24.6902 91.9762 24.7514 92.0711 24.7941C92.1661 24.8368 92.2687 24.86 92.3728 24.8624C92.477 24.8648 92.5805 24.8464 92.6774 24.8082C92.7723 24.7624 92.8564 24.6971 92.9242 24.6166C92.9919 24.536 93.0418 24.4421 93.0704 24.3409C93.0991 24.2397 93.1059 24.1336 93.0904 24.0296C93.0748 23.9256 93.0374 23.8261 92.9804 23.7376L92.5595 22.8643L91.2379 23.4773Z" fill="white"/>
<path d="M94.6259 34.2758C94.1138 34.3877 93.58 34.346 93.0916 34.1559C92.6032 33.9658 92.1822 33.6357 91.8815 33.2073C91.5809 32.7789 91.414 32.2713 91.4021 31.7485C91.3901 31.2257 91.5335 30.711 91.8143 30.2694C92.095 29.8277 92.5005 29.4789 92.9797 29.2667C93.4589 29.0545 93.9903 28.9886 94.507 29.0771C95.0237 29.1657 95.5025 29.4048 95.8832 29.7644C96.2639 30.1239 96.5294 30.5878 96.6462 31.0976C96.8006 31.7863 96.6745 32.5079 96.2957 33.1039C95.9168 33.6998 95.3163 34.1214 94.6259 34.2758ZM94.4113 33.3353C94.7344 33.2582 95.0275 33.0875 95.2535 32.8446C95.4796 32.6018 95.6285 32.2976 95.6816 31.9705C95.7347 31.6433 95.6896 31.3078 95.552 31.0062C95.4143 30.7046 95.1902 30.4503 94.908 30.2755C94.6258 30.1006 94.298 30.0129 93.9659 30.0235C93.6338 30.0341 93.3123 30.1425 93.0419 30.335C92.7714 30.5275 92.5641 30.7955 92.446 31.1052C92.328 31.415 92.3044 31.7527 92.3784 32.0758C92.427 32.293 92.5184 32.4984 92.6472 32.68C92.7761 32.8617 92.9398 33.0159 93.129 33.1339C93.3181 33.2519 93.5289 33.3312 93.749 33.3672C93.9692 33.4032 94.1943 33.3952 94.4113 33.3437V33.3353Z" fill="white"/>
<path d="M93.8305 41.6186L92.955 42.0006C92.5551 41.5503 92.3284 40.9731 92.3153 40.3716C92.3097 40.0215 92.3734 39.6738 92.5026 39.3482C92.6318 39.0227 92.824 38.7257 93.0683 38.4742C93.3126 38.2228 93.6041 38.0218 93.9263 37.8827C94.2484 37.7436 94.5949 37.6692 94.9459 37.6637C95.2968 37.6582 95.6455 37.7217 95.9718 37.8506C96.2982 37.9794 96.596 38.1712 96.848 38.4149C97.1001 38.6585 97.3016 38.9493 97.4411 39.2707C97.5805 39.592 97.6551 39.9376 97.6606 40.2877C97.6697 40.8878 97.4637 41.4714 97.0798 41.9334L96.1917 41.5808C96.5174 41.2428 96.6959 40.79 96.6883 40.3213C96.6719 40.0491 96.5893 39.785 96.4476 39.5518C96.3059 39.3186 96.1094 39.1234 95.8751 38.9829C95.6408 38.8425 95.3757 38.761 95.1028 38.7457C94.8299 38.7303 94.5573 38.7814 94.3086 38.8947C94.0599 39.0079 93.8427 39.1799 93.6755 39.3956C93.5084 39.6114 93.3965 39.8645 93.3494 40.1331C93.3023 40.4017 93.3215 40.6777 93.4054 40.9373C93.4892 41.1968 93.6351 41.4321 93.8305 41.6228V41.6186Z" fill="white"/>
<path d="M91.3262 49.0833L91.5661 47.8867L94.1251 46.4467L91.9365 46.0269L92.1259 45.0822L97.1303 46.0688L96.9409 47.0135L94.8701 46.5936L96.5958 48.76L96.3558 49.9523L94.3861 47.3577L91.3262 49.0833Z" fill="white"/>
<path d="M93.8724 54.3354L92.8581 53.9156L92.172 55.595L91.2755 55.2297L91.9574 53.5504L90.9472 53.1305L90.1054 55.1331L89.2047 54.7679L90.3874 51.871L95.114 53.7939L93.9271 56.6907L93.0306 56.3255L93.8724 54.3354Z" fill="white"/>
<path d="M90.1435 63.2696L89.3438 62.7322L90.0635 61.6196L86.5912 59.3861L87.1131 58.58L90.5855 60.8135L91.3094 59.701L92.1259 60.2257L90.1435 63.2696Z" fill="white"/>
<path d="M82.3401 66.7963C81.6793 66.1665 81.6372 65.1631 82.5674 64.1975C82.8275 63.9148 83.1437 63.689 83.4957 63.5343C83.8478 63.3797 84.2282 63.2996 84.6129 63.299L84.8907 64.2352C84.5887 64.2266 84.2882 64.2795 84.0074 64.3907C83.7266 64.5019 83.4715 64.669 83.2577 64.8818C82.7947 65.3646 82.7063 65.8138 82.963 66.0615C83.2198 66.3092 83.6028 66.1707 84.1331 65.7635C85.2906 64.8776 86.0229 64.8986 86.5785 65.4318C87.1341 65.965 87.2561 67.0272 86.3807 67.9508C85.9473 68.4161 85.3629 68.7136 84.7308 68.7905L84.4109 67.9214C84.8914 67.8611 85.3369 67.6389 85.6736 67.2917C86.0313 66.9222 86.2376 66.4982 85.9429 66.2127C85.6483 65.9272 85.3958 66.0951 84.7981 66.536C83.9185 67.1699 83.1272 67.552 82.3401 66.7963Z" fill="white"/>
<path d="M80.4631 71.6578L79.8318 70.7678L78.3544 71.809L77.7947 71.0197L79.272 69.9785L78.6406 69.0884L76.8645 70.3479L76.3047 69.5544L78.8679 67.7491L81.8142 71.9013L79.2509 73.7108L78.6912 72.9173L80.4631 71.6578Z" fill="white"/>
<path d="M71.0139 73.3414L72.9711 72.4723L72.9206 71.4353L73.9139 71.0155L74.0696 76.5196L73.2699 76.8722L69.2841 73.0643L70.2732 72.6445L71.0139 73.3414ZM71.7463 74.0761L73.1268 75.4532L73.0258 73.5093L71.7463 74.0761Z" fill="white"/>
<path d="M64.9573 79.4334L64.73 78.4888L66.0221 78.1823L65.0667 74.1728L66.0053 73.9503L66.9607 77.9598L68.2528 77.6533L68.4801 78.5937L64.9573 79.4334Z" fill="white"/>
</svg>
